<svg xmlns="http://www.w3.org/2000/svg" width="33" height="33" viewBox="0 0 33 33" fill="none"><path d="M3.41421 0.585786C2.63317 -0.195262 1.36683 -0.195262 0.585786 0.585786C-0.195262 1.36683 -0.195262 2.63317 0.585786 3.41421L3.41421 0.585786ZM31 33C32.1046 33 33 32.1046 33 31V13C33 11.8954 32.1046 11 31 11C29.8954 11 29 11.8954 29 13V29H13C11.8954 29 11 29.8954 11 31C11 32.1046 11.8954 33 13 33H31ZM0.585786 3.41421L29.5858 32.4142L32.4142 29.5858L3.41421 0.585786L0.585786 3.41421Z" fill="#E4353A"></path></svg>